<?xml version="1.0" standalone="no"?>
<!DOCTYPE svg PUBLIC "-//W3C//DTD SVG 20010904//EN"
 "http://www.w3.org/TR/2001/REC-SVG-20010904/DTD/svg10.dtd">
<svg version="1.0" xmlns="http://www.w3.org/2000/svg"
 width="600.000000pt" height="480.000000pt" viewBox="0 0 600.000000 480.000000"
 preserveAspectRatio="xMidYMid meet">

<g transform="translate(0.000000,480.000000) scale(0.100000,-0.100000)"
fill="#000000" stroke="none">
<path d="M2905 4333 c-16 -8 -232 -144 -478 -300 -394 -251 -450 -290 -467
-324 -19 -37 -20 -62 -20 -589 0 -582 1 -591 47 -632 10 -10 221 -146 467
-303 331 -211 461 -289 497 -297 92 -21 110 -12 591 293 244 155 454 291 467
303 51 45 51 45 51 636 0 528 -1 552 -20 589 -17 34 -72 73 -459 319 -241 154
-457 290 -479 301 -51 26 -152 28 -197 4z m427 -409 c501 -289 528 -306 528
-315 0 -5 -10 -11 -22 -14 -40 -9 -1666 -275 -1683 -275 -14 0 -15 19 -13 151
l3 150 420 244 c231 134 426 244 432 244 7 1 158 -83 335 -185z m528 -1156 l0
-153 -430 -247 -429 -248 -430 248 c-237 136 -431 252 -431 258 0 6 57 20 138
33 644 105 1421 234 1482 245 41 8 81 14 88 15 9 1 12 -36 12 -151z"/>
<path d="M1936 1580 c-34 -11 -82 -54 -102 -92 -17 -32 -18 -105 -3 -145 16
-42 46 -71 124 -115 79 -46 95 -62 95 -95 0 -28 -33 -63 -60 -63 -31 0 -70 44
-70 80 0 29 -1 30 -50 30 l-50 0 0 -41 c0 -94 73 -169 164 -169 83 0 144 47
167 128 24 86 -19 155 -132 212 -90 46 -119 97 -83 148 10 15 25 22 48 22 47
0 66 -26 66 -89 l0 -52 53 3 52 3 -2 63 c-3 103 -55 164 -149 176 -22 3 -52 1
-68 -4z"/>
<path d="M2835 1575 c-81 -29 -127 -117 -105 -202 17 -68 36 -91 122 -141 77
-44 108 -73 108 -100 0 -20 -47 -62 -70 -62 -32 0 -60 35 -60 75 l0 35 -56 0
-57 0 6 -51 c12 -95 81 -159 171 -159 58 0 97 19 132 65 28 37 41 104 30 149
-10 42 -54 83 -132 126 -79 44 -94 61 -94 108 0 36 28 62 67 62 41 0 56 -21
61 -86 l4 -54 49 0 49 0 0 54 c0 92 -30 143 -105 177 -48 22 -67 23 -120 4z"/>
<path d="M3215 1571 c-88 -40 -104 -85 -105 -294 0 -120 4 -166 15 -195 31
-73 86 -112 160 -112 57 0 96 19 132 67 l28 36 3 185 c2 102 1 196 -3 209 -9
38 -73 102 -113 113 -51 14 -71 12 -117 -9z m122 -121 c9 -17 13 -75 13 -178
0 -149 -1 -154 -25 -177 -29 -30 -58 -32 -85 -5 -18 18 -20 33 -20 187 0 143
2 169 17 185 25 28 84 21 100 -12z"/>
<path d="M2220 1275 l0 -306 143 3 142 3 3 53 3 52 -95 0 -96 0 0 250 0 250
-50 0 -50 0 0 -305z"/>
<path d="M2562 1278 l3 -303 50 0 50 0 3 303 2 302 -55 0 -55 0 2 -302z"/>
<path d="M3522 1278 l3 -303 50 0 50 0 3 127 3 127 87 3 87 3 3 53 3 52 -90 0
-91 0 0 65 0 64 88 3 87 3 3 53 3 52 -146 0 -145 0 2 -302z"/>
<path d="M3850 1525 l0 -55 60 0 60 0 0 -250 0 -250 50 0 50 0 0 250 0 250 60
0 60 0 0 55 0 55 -170 0 -170 0 0 -55z"/>
</g>
</svg>
